<!DOCTYPE svg PUBLIC "-//W3C//DTD SVG 1.1//EN" "http://www.w3.org/Graphics/SVG/1.1/DTD/svg11.dtd">
<!-- Uploaded to: SVG Repo, www.svgrepo.com, Transformed by: SVG Repo Mixer Tools -->
<svg height="800px" width="800px" version="1.1" id="Layer_1" xmlns="http://www.w3.org/2000/svg" xmlns:xlink="http://www.w3.org/1999/xlink" viewBox="0 0 512 512" xml:space="preserve" fill="#000000" stroke="#000000" stroke-width="0.00512">
<g id="SVGRepo_bgCarrier" stroke-width="0"/>
<g id="SVGRepo_tracerCarrier" stroke-linecap="round" stroke-linejoin="round"/>
<g id="SVGRepo_iconCarrier"> <g> <path style="fill:#C9CFF2;" d="M464.791,242.585c-26.032,0-47.211-21.178-47.211-47.211s21.178-47.209,47.211-47.209 c26.031,0,47.209,21.178,47.209,47.209C512,221.407,490.822,242.585,464.791,242.585z M464.791,178.256 c-9.441,0-17.12,7.68-17.12,17.119c0,9.441,7.68,17.12,17.12,17.12c9.439,0,17.119-7.68,17.119-17.12 C481.91,185.935,474.23,178.256,464.791,178.256z"/> <path style="fill:#C9CFF2;" d="M69.508,195.375c0-20.049,16.312-36.361,36.361-36.361c20.05,0,36.361,16.311,36.361,36.361 s-16.312,36.361-36.361,36.361C85.82,231.737,69.508,215.425,69.508,195.375z M92.684,195.375c0,7.271,5.914,13.186,13.186,13.186 s13.186-5.914,13.186-13.186c0-7.27-5.914-13.186-13.186-13.186C98.599,182.19,92.684,188.105,92.684,195.375z"/> <path style="fill:#C9CFF2;" d="M237.471,291.818c0-20.049,16.312-36.361,36.361-36.361c20.05,0,36.361,16.311,36.361,36.361 s-16.312,36.361-36.361,36.361C253.783,328.18,237.471,311.868,237.471,291.818z M260.647,291.818 c0,7.271,5.914,13.186,13.186,13.186s13.186-5.914,13.186-13.186c0-7.27-5.914-13.186-13.186-13.186 C266.562,278.633,260.647,284.548,260.647,291.818z"/> </g> <g> <path style="fill:#626375;" d="M334.642,369.285l-16.853-16.853c-2.324-2.325-5.821-3.019-8.857-1.762 c-3.037,1.258-5.017,4.222-5.017,7.508v12.14c0,6.053-4.924,10.978-10.978,10.978c-6.054,0-10.978-4.925-10.978-10.978v-65.316 c0-4.488-3.639-8.127-8.127-8.127s-8.127,3.639-8.127,8.127v65.316c0,6.053-4.925,10.978-10.978,10.978 s-10.978-4.925-10.978-10.978v-12.14c0-3.288-1.98-6.25-5.017-7.508c-3.035-1.257-6.533-0.563-8.857,1.762l-16.853,16.853 c-3.174,3.174-3.174,8.32,0,11.493c3.174,3.174,8.32,3.174,11.493,0l3.802-3.801c2.978,11.808,13.688,20.575,26.409,20.575 c7.438,0,14.186-3.001,19.105-7.85c4.92,4.85,11.667,7.85,19.105,7.85c12.721,0,23.431-8.767,26.409-20.575l3.802,3.801 c3.174,3.174,8.32,3.174,11.493,0C337.817,377.606,337.817,372.459,334.642,369.285z"/> <path style="fill:#626375;" d="M92.549,187.249H27.233c-6.053,0-10.978-4.925-10.978-10.978c0-6.053,4.925-10.978,10.978-10.978 h12.141c3.288,0,6.25-1.98,7.508-5.017c1.258-3.037,0.562-6.532-1.762-8.857l-16.854-16.853c-3.174-3.175-8.32-3.174-11.493,0 c-3.174,3.174-3.174,8.32,0,11.493l3.801,3.802C8.767,152.838,0,163.55,0,176.269c0,7.438,2.999,14.186,7.85,19.105 C2.999,200.295,0,207.043,0,214.481c0,12.721,8.767,23.431,20.575,26.409l-3.801,3.802c-3.174,3.174-3.174,8.319,0,11.493 c1.586,1.587,3.667,2.381,5.746,2.381s4.16-0.793,5.746-2.381l16.854-16.853c2.324-2.324,3.02-5.82,1.762-8.857 c-1.258-3.037-4.222-5.017-7.508-5.017H27.233c-6.053,0-10.978-4.924-10.978-10.978c0-6.053,4.925-10.978,10.978-10.978h65.316 c4.488,0,8.127-3.639,8.127-8.127C100.676,190.887,97.037,187.249,92.549,187.249z"/> </g> <path style="fill:#b3ec9c;" d="M453.933,196.13L453.933,196.13l-173.279-37.115L117.39,206.592l0,0v30.285 c31.629,23.613,89.419,39.424,155.478,39.424c100.011,0,181.085-36.232,181.085-80.927 C453.954,195.627,453.938,195.878,453.933,196.13z"/> <path style="opacity:0.1;enable-background:new ;" d="M271.771,260.048c-62.614,0-118.38-12.052-154.382-30.825v7.656 c31.629,23.613,89.419,39.424,155.478,39.424c85.543,0,157.222-26.509,176.173-62.146 C417.316,241.307,349.861,260.048,271.771,260.048z"/> <path style="fill:#004b49;" d="M272.868,114.448c-66.06,0-123.849,15.81-155.478,39.424v52.721 c60.367,14.794,107.99-11.09,156.536-6.466c40.79,3.885,115.2,19.519,180.007-3.996c0.005-0.251,0.022-0.502,0.022-0.754 C453.954,150.68,372.879,114.448,272.868,114.448z"/> <path style="fill:#004b49;" d="M271.292,136.121c77.066,0,144.116,17.056,178.62,42.199 c-17.524-36.503-90.127-63.871-177.043-63.871c-66.06,0-123.849,15.81-155.478,39.424v10.29 C154.682,146.993,209.785,136.121,271.292,136.121z"/> <circle style="fill:#FFFFFF;" cx="388.178" cy="191.305" r="34.14"/> <g> <circle style="fill:#6E8066;" cx="388.178" cy="191.305" r="13.506"/> <path style="fill:#6E8066;" d="M320.904,236.617c-1.434,0-2.886-0.379-4.202-1.177c-8.606-5.212-13.953-15.41-13.953-26.615 c0-10.95,5.169-21.039,13.489-26.326c3.79-2.409,8.811-1.288,11.219,2.5s1.288,8.811-2.5,11.219 c-3.616,2.298-5.953,7.247-5.953,12.608c0,5.471,2.401,10.46,6.119,12.711c3.839,2.325,5.067,7.323,2.742,11.162 C326.336,235.222,323.653,236.617,320.904,236.617z"/> <path style="fill:#6E8066;" d="M285.664,232.506c-1.434,0-2.886-0.379-4.202-1.177c-8.606-5.212-13.953-15.41-13.953-26.615 c0-10.951,5.169-21.039,13.489-26.327c3.789-2.409,8.811-1.288,11.219,2.5c2.408,3.788,1.288,8.811-2.5,11.219 c-3.616,2.298-5.953,7.247-5.953,12.609c0,5.47,2.401,10.46,6.119,12.711c3.839,2.325,5.067,7.323,2.742,11.162 C291.096,231.112,288.414,232.506,285.664,232.506z"/> <path style="fill:#6E8066;" d="M248.613,233.59c-1.434,0-2.886-0.379-4.202-1.177c-8.606-5.212-13.953-15.41-13.953-26.615 c0-10.951,5.169-21.039,13.489-26.327c3.789-2.409,8.811-1.287,11.219,2.5c2.408,3.788,1.288,8.811-2.5,11.219 c-3.616,2.298-5.953,7.247-5.953,12.609c0,5.47,2.401,10.46,6.119,12.711c3.839,2.325,5.067,7.323,2.742,11.162 C254.045,232.195,251.362,233.59,248.613,233.59z"/> </g> </g>
</svg>